<svg id="acab9987-39c0-4db4-b8be-0b61c1c111f7" data-name="Calque 1" xmlns="http://www.w3.org/2000/svg" viewBox="0 0 300 300"><rect width="300" height="300" style="fill:#1f1f1f"/><path d="M45.93,144.25H9L69.35,106v27.51Zm23.42,38.33L9,144.25h37l23.42,11.5Z" style="fill:#dedede"/><path d="M138.33,62.5h22.49V215.62H138.33Z" style="fill:#dedede"/><path d="M230.65,106,291,144.25h-37l-23.42-10.73Zm23.42,38.24h37l-60.38,38.33V155.75Z" style="fill:#dedede"/><polyline points="148.17 287.57 148.17 271.57 148.17 271.56" style="fill:none;stroke:#dedede;stroke-miterlimit:10;stroke-width:5px"/><polygon points="163.86 238.57 148.17 271.56 148.17 240.56 163.86 238.57" style="fill:none;stroke:#dedede;stroke-miterlimit:10;stroke-width:5px"/><path d="M126.42,246.92l-11.2-11.31L104,255.15l20,16.41-14.24,20.21c-7.79-11.46-13.51-16.72-13.51-16.72" style="fill:none;stroke:#dedede;stroke-miterlimit:10;stroke-width:5px"/><polyline points="137.44 294.15 148.17 271.57 148.17 271.56" style="fill:none;stroke:#dedede;stroke-miterlimit:10;stroke-width:5px"/><line x1="148.17" y1="271.56" x2="164.18" y2="287.57" style="fill:none;stroke:#dedede;stroke-miterlimit:10;stroke-width:5px"/><line x1="192.98" y1="279.26" x2="181.32" y2="287.57" style="fill:none;stroke:#dedede;stroke-miterlimit:10;stroke-width:5px"/><line x1="192.98" y1="255.55" x2="192.98" y2="237.39" style="fill:none;stroke:#dedede;stroke-miterlimit:10;stroke-width:5px"/><polygon points="203.76 271.56 192.98 279.25 192.98 255.55 203.76 271.56" style="fill:none;stroke:#dedede;stroke-miterlimit:10;stroke-width:5px"/><line x1="192.98" y1="255.55" x2="178.84" y2="237.39" style="fill:none;stroke:#dedede;stroke-miterlimit:10;stroke-width:5px"/></svg>